<svg width="25" height="26" viewBox="0 0 25 26" fill="none" xmlns="http://www.w3.org/2000/svg">
<path d="M20.8333 13.0001C20.8333 9.07171 20.8333 7.10753 19.6129 5.88714C19.6129 5.88714 19.6129 5.88714 19.6129 5.88714C18.3925 4.66675 16.4283 4.66675 12.5 4.66675V4.66675C8.57159 4.66675 6.6074 4.66675 5.38701 5.88714C5.38701 5.88714 5.38701 5.88714 5.38701 5.88714C4.16663 7.10753 4.16663 9.07171 4.16663 13.0001V19.2501C4.16663 20.2322 4.16663 20.7232 4.47172 21.0283C4.77682 21.3334 5.26787 21.3334 6.24996 21.3334H12.5C16.4283 21.3334 18.3925 21.3334 19.6129 20.113C19.6129 20.113 19.6129 20.113 19.6129 20.113C20.8333 18.8926 20.8333 16.9285 20.8333 13.0001V13.0001Z" stroke="#F9F9F9" stroke-width="1.5"/>
<path d="M9.375 10.9167L15.625 10.9167" stroke="#F9F9F9" stroke-width="1.5" stroke-linecap="round" stroke-linejoin="round"/>
<path d="M9.375 15.0835H12.5" stroke="#F9F9F9" stroke-width="1.5" stroke-linecap="round" stroke-linejoin="round"/>
</svg>
