<svg width="236" height="104" viewBox="0 0 236 104" fill="none" xmlns="http://www.w3.org/2000/svg">
<path d="M18.8086 45.72C18.6806 45.464 18.6166 45.112 18.6166 44.664C18.6166 44.312 18.6646 43.992 18.7606 43.704C16.6486 43.384 14.8886 42.936 13.4806 42.36C12.0726 41.752 10.9366 41.048 10.0726 40.248C9.20856 39.416 8.60056 38.52 8.24856 37.56C7.89656 36.568 7.72056 35.512 7.72056 34.392C7.72056 32.888 8.02456 31.496 8.63256 30.216C9.27256 28.904 10.4406 27.8 12.1366 26.904C8.93656 26.232 7.33656 24.648 7.33656 22.152C7.33656 20.808 7.72056 19.704 8.48856 18.84C9.28856 17.976 10.3126 17.512 11.5606 17.448C14.3446 17.256 16.8086 17.832 18.9526 19.176C18.2806 18.728 17.8006 18.136 17.5126 17.4C17.2246 16.632 17.1126 15.864 17.1766 15.096C17.2726 13.72 18.1686 12.744 19.8646 12.168C21.5606 11.56 23.8646 11.256 26.7766 11.256C29.6246 11.256 31.8966 11.56 33.5926 12.168C35.2886 12.744 36.2006 13.72 36.3286 15.096C36.3926 15.864 36.2646 16.632 35.9446 17.4C35.6566 18.136 35.1606 18.728 34.4566 19.176C36.6326 17.832 39.1446 17.256 41.9926 17.448C43.2086 17.512 44.2006 17.944 44.9686 18.744C45.7366 19.512 46.1206 20.568 46.1206 21.912C46.1206 23.128 45.7206 24.184 44.9206 25.08C44.1526 25.944 42.9526 26.552 41.3206 26.904C43.0486 27.8 44.2166 28.888 44.8246 30.168C45.4646 31.448 45.7846 32.856 45.7846 34.392C45.7846 35.512 45.5926 36.568 45.2086 37.56C44.8566 38.52 44.2486 39.416 43.3846 40.248C42.5526 41.048 41.4326 41.752 40.0246 42.36C38.6166 42.936 36.8566 43.384 34.7446 43.704C34.8406 43.992 34.8886 44.312 34.8886 44.664C34.8886 45.112 34.8246 45.464 34.6966 45.72C37.1606 45.592 39.7366 45.4 42.4246 45.144C44.2806 44.92 45.7046 45.256 46.6966 46.152C47.7206 47.048 48.2326 48.312 48.2326 49.944C48.2326 51.928 47.7206 53.32 46.6966 54.12C45.6726 54.952 44.2326 55.464 42.3766 55.656C37.0326 56.2 31.8006 56.472 26.6806 56.472C21.5926 56.472 16.3766 56.2 11.0326 55.656C10.1046 55.56 9.28856 55.384 8.58456 55.128C7.88056 54.904 7.27256 54.568 6.76056 54.12C6.24856 53.672 5.86456 53.112 5.60856 52.44C5.35256 51.768 5.22456 50.936 5.22456 49.944C5.22456 48.344 5.73656 47.096 6.76056 46.2C7.78456 45.272 9.20856 44.92 11.0326 45.144C13.6566 45.4 16.2486 45.592 18.8086 45.72ZM23.4646 30.504C24.3606 31.336 25.3366 32.056 26.3926 32.664C27.4486 33.272 28.5526 33.672 29.7046 33.864C29.9606 33.896 30.1686 33.864 30.3286 33.768C30.4886 33.64 30.6006 33.496 30.6646 33.336C30.7286 33.144 30.7286 32.968 30.6646 32.808C30.6326 32.648 30.5206 32.536 30.3286 32.472C29.1126 32.12 28.0246 31.688 27.0646 31.176C26.1366 30.664 25.2086 30.024 24.2806 29.256C24.1206 29.128 23.9606 29.096 23.8006 29.16C23.6406 29.192 23.4966 29.272 23.3686 29.4C23.2406 29.528 23.1766 29.704 23.1766 29.928C23.1766 30.12 23.2726 30.312 23.4646 30.504ZM89.9539 33.096C89.9219 33.256 89.8899 33.416 89.8579 33.576C89.8579 33.736 89.8419 33.896 89.8099 34.056C89.5859 35.688 88.9299 36.888 87.8419 37.656C86.7539 38.392 85.3619 38.76 83.6659 38.76C82.7059 38.76 81.8259 38.648 81.0259 38.424C80.2579 38.2 79.6019 37.88 79.0579 37.464C78.5459 37.016 78.1619 36.472 77.9059 35.832C77.6819 35.16 77.6339 34.376 77.7619 33.48C78.1139 30.856 78.2899 28.344 78.2899 25.944C78.2899 23.512 78.1299 21.048 77.8099 18.552C77.5219 16.568 77.9379 15.128 79.0579 14.232C80.1779 13.336 81.7139 12.888 83.6659 12.888C85.3619 12.888 86.7539 13.272 87.8419 14.04C88.9299 14.776 89.5859 15.96 89.8099 17.592C89.8739 17.848 89.9059 18.088 89.9059 18.312C89.9379 18.504 89.9699 18.728 90.0019 18.984L91.5859 18.792C92.7059 18.696 93.5699 19.224 94.1779 20.376C94.7859 21.496 95.0899 23.4 95.0899 26.088C95.0899 28.68 94.7859 30.552 94.1779 31.704C93.5699 32.856 92.7059 33.384 91.5859 33.288L89.9539 33.096ZM57.4579 36.264C55.1859 35.208 53.4099 33.608 52.1299 31.464C50.8819 29.288 50.3379 26.408 50.4979 22.824C50.6259 20.2 51.2819 18.104 52.4659 16.536C53.6819 14.936 55.1539 13.944 56.8819 13.56C57.8419 13.336 58.7859 13.304 59.7139 13.464C60.6419 13.624 61.4899 13.928 62.2579 14.376C63.0579 14.824 63.7299 15.416 64.2739 16.152C64.8499 16.888 65.2659 17.72 65.5219 18.648C66.0019 20.44 66.0819 22.264 65.7619 24.12C65.4419 25.944 64.5459 28.008 63.0739 30.312C62.9139 30.568 62.8499 30.808 62.8819 31.032C62.9459 31.224 63.0419 31.368 63.1699 31.464C63.3299 31.56 63.5059 31.592 63.6979 31.56C63.8899 31.528 64.0339 31.416 64.1299 31.224C64.9619 29.592 65.8579 28.184 66.8179 27C67.8099 25.816 69.0579 25.048 70.5619 24.696C71.4259 24.504 72.2419 24.488 73.0099 24.648C73.8099 24.808 74.4979 25.128 75.0739 25.608C75.6819 26.056 76.1619 26.648 76.5139 27.384C76.8659 28.088 77.0419 28.92 77.0419 29.88C77.0099 31.832 76.4019 33.384 75.2179 34.536C74.0339 35.688 72.2419 36.536 69.8419 37.08C67.4419 37.624 65.2339 37.832 63.2179 37.704C61.2019 37.576 59.2819 37.096 57.4579 36.264ZM51.8899 53.256C51.7299 52.648 51.6019 51.88 51.5059 50.952C51.4419 50.024 51.3939 49.064 51.3619 48.072C51.3619 47.08 51.3939 46.136 51.4579 45.24C51.5219 44.344 51.6179 43.608 51.7459 43.032C51.9699 42.008 52.4019 41.288 53.0419 40.872C53.6819 40.456 54.6419 40.152 55.9219 39.96C58.2579 39.64 60.6899 39.4 63.2179 39.24C65.7459 39.08 68.2899 39 70.8499 39C73.4419 39 76.0019 39.08 78.5299 39.24C81.0899 39.4 83.5539 39.64 85.9219 39.96C87.1699 40.152 88.0979 40.456 88.7059 40.872C89.3459 41.288 89.7939 42.008 90.0499 43.032C90.1779 43.608 90.2739 44.344 90.3379 45.24C90.4019 46.136 90.4179 47.08 90.3859 48.072C90.3859 49.064 90.3379 50.024 90.2419 50.952C90.1779 51.88 90.0499 52.648 89.8579 53.256C89.6019 54.28 89.1859 55 88.6099 55.416C88.0659 55.864 87.1699 56.168 85.9219 56.328C83.5219 56.584 81.0579 56.76 78.5299 56.856C76.0019 56.984 73.4579 57.048 70.8979 57.048C68.3379 57.048 65.7939 56.984 63.2659 56.856C60.7379 56.76 58.2899 56.584 55.9219 56.328C54.6419 56.2 53.7139 55.912 53.1379 55.464C52.5619 55.016 52.1459 54.28 51.8899 53.256ZM67.8739 47.496C67.7459 47.4 67.5699 47.4 67.3459 47.496C67.1219 47.56 66.9459 47.704 66.8179 47.928C66.5939 48.376 66.8019 48.776 67.4419 49.128C68.5299 49.704 69.6819 49.992 70.8979 49.992C72.1139 49.992 73.2659 49.704 74.3539 49.128C74.5459 49 74.6899 48.856 74.7859 48.696C74.9139 48.504 74.9299 48.28 74.8339 48.024C74.7699 47.832 74.6259 47.672 74.4019 47.544C74.2099 47.416 74.0179 47.416 73.8259 47.544C72.9299 48.056 71.9219 48.312 70.8019 48.312C69.7139 48.28 68.7379 48.008 67.8739 47.496ZM99.2273 22.584C97.4673 22.072 96.5873 21.08 96.5873 19.608C96.5873 17.56 98.3473 16.44 101.867 16.248C102.059 16.248 102.251 16.248 102.443 16.248C102.635 16.216 102.827 16.2 103.019 16.2C102.539 15.72 102.299 15.224 102.299 14.712C102.299 13.816 102.907 13.112 104.123 12.6C105.339 12.056 106.939 11.784 108.923 11.784C110.875 11.784 112.443 12.056 113.627 12.6C114.843 13.112 115.451 13.816 115.451 14.712C115.451 14.968 115.403 15.208 115.307 15.432C115.243 15.656 115.083 15.896 114.827 16.152C115.179 16.184 115.531 16.2 115.883 16.2C116.267 16.2 116.635 16.216 116.987 16.248C120.507 16.44 122.267 17.56 122.267 19.608C122.267 21.112 121.371 22.12 119.579 22.632C120.507 23.176 121.275 24.04 121.883 25.224C122.491 26.408 122.795 27.88 122.795 29.64C122.795 31.112 122.539 32.472 122.027 33.72C121.547 34.968 120.763 36.056 119.675 36.984C118.619 37.912 117.243 38.648 115.547 39.192C113.851 39.704 111.787 39.96 109.355 39.96C106.955 39.96 104.891 39.704 103.163 39.192C101.467 38.648 100.075 37.912 98.9873 36.984C97.9313 36.056 97.1473 34.968 96.6353 33.72C96.1553 32.472 95.9153 31.112 95.9153 29.64C95.9153 27.848 96.2193 26.36 96.8273 25.176C97.4673 23.992 98.2673 23.128 99.2273 22.584ZM135.323 36.888C135.003 38.296 134.299 39.336 133.211 40.008C132.155 40.648 130.843 40.968 129.275 40.968C128.315 40.968 127.435 40.856 126.635 40.632C125.867 40.408 125.211 40.088 124.667 39.672C124.155 39.224 123.771 38.68 123.515 38.04C123.291 37.368 123.243 36.584 123.371 35.688C123.563 34.376 123.691 32.984 123.755 31.512C123.851 30.008 123.899 28.504 123.899 27C123.899 25.496 123.851 24.024 123.755 22.584C123.691 21.112 123.579 19.752 123.419 18.504C123.131 16.52 123.547 15.08 124.667 14.184C125.787 13.288 127.323 12.84 129.275 12.84C130.811 12.84 132.107 13.144 133.163 13.752C134.219 14.36 134.923 15.336 135.275 16.68L137.195 16.488C138.315 16.392 139.179 16.728 139.787 17.496C140.395 18.232 140.699 19.496 140.699 21.288C140.699 23.016 140.395 24.28 139.787 25.08C139.179 25.848 138.315 26.168 137.195 26.04L136.043 25.896V27.672L137.195 27.528C138.315 27.4 139.179 27.736 139.787 28.536C140.395 29.304 140.699 30.552 140.699 32.28C140.699 34.04 140.395 35.304 139.787 36.072C139.179 36.84 138.315 37.176 137.195 37.08L135.323 36.888ZM108.587 31.464C108.587 31.656 108.667 31.8 108.827 31.896C108.987 31.992 109.163 32.04 109.355 32.04C109.547 32.04 109.723 31.992 109.883 31.896C110.043 31.8 110.123 31.656 110.123 31.464V27.336C110.123 27.144 110.043 27 109.883 26.904C109.723 26.808 109.547 26.76 109.355 26.76C109.163 26.76 108.987 26.808 108.827 26.904C108.667 27 108.587 27.144 108.587 27.336V31.464ZM97.5953 49.512C97.5953 46.568 99.1153 44.376 102.155 42.936C105.227 41.464 110.171 40.728 116.987 40.728C123.771 40.728 128.699 41.464 131.771 42.936C134.843 44.376 136.379 46.568 136.379 49.512C136.379 51.016 136.043 52.248 135.371 53.208C134.731 54.168 133.659 54.92 132.155 55.464C130.651 56.008 128.651 56.376 126.155 56.568C123.691 56.792 120.635 56.904 116.987 56.904C113.339 56.904 110.267 56.792 107.771 56.568C105.307 56.376 103.307 56.008 101.771 55.464C100.267 54.92 99.1953 54.168 98.5553 53.208C97.9153 52.248 97.5953 51.016 97.5953 49.512ZM114.059 48.072C113.899 48.008 113.707 48.008 113.483 48.072C113.259 48.136 113.067 48.296 112.907 48.552C112.683 49.064 112.875 49.464 113.483 49.752C114.603 50.36 115.755 50.664 116.939 50.664C118.155 50.632 119.323 50.328 120.443 49.752C120.603 49.688 120.747 49.544 120.875 49.32C121.003 49.096 121.019 48.856 120.923 48.6C120.859 48.408 120.715 48.264 120.491 48.168C120.267 48.04 120.059 48.024 119.867 48.12C118.971 48.6 117.979 48.84 116.891 48.84C115.835 48.84 114.891 48.584 114.059 48.072ZM143.493 25.992C143.493 23.88 143.957 22.056 144.885 20.52C145.845 18.952 147.189 17.672 148.917 16.68C150.677 15.656 152.789 14.904 155.253 14.424C157.717 13.944 160.485 13.704 163.557 13.704C166.597 13.704 169.349 13.944 171.813 14.424C174.277 14.872 176.373 15.592 178.101 16.584C179.861 17.576 181.205 18.856 182.133 20.424C183.093 21.96 183.573 23.816 183.573 25.992C183.573 28.168 183.093 30.04 182.133 31.608C181.205 33.144 179.861 34.408 178.101 35.4C176.373 36.392 174.277 37.128 171.813 37.608C169.349 38.056 166.597 38.28 163.557 38.28C160.485 38.28 157.717 38.04 155.253 37.56C152.789 37.08 150.677 36.344 148.917 35.352C147.189 34.328 145.845 33.048 144.885 31.512C143.957 29.944 143.493 28.104 143.493 25.992ZM161.061 27.624C160.901 27.72 160.821 27.88 160.821 28.104C160.821 28.296 160.885 28.488 161.013 28.68C161.141 28.84 161.317 28.952 161.541 29.016C161.765 29.08 162.005 29.032 162.261 28.872C163.349 28.264 164.325 27.496 165.189 26.568C166.085 25.608 166.741 24.584 167.157 23.496C167.253 23.24 167.253 23 167.157 22.776C167.061 22.552 166.933 22.392 166.773 22.296C166.613 22.168 166.437 22.104 166.245 22.104C166.053 22.104 165.909 22.184 165.813 22.344C165.173 23.464 164.469 24.472 163.701 25.368C162.933 26.232 162.053 26.984 161.061 27.624ZM155.589 48.984C153.989 48.92 152.421 48.856 150.885 48.792C149.381 48.696 147.909 48.584 146.469 48.456C145.093 48.328 144.005 47.816 143.205 46.92C142.437 46.024 142.053 44.856 142.053 43.416C142.053 42.808 142.149 42.216 142.341 41.64C142.565 41.064 142.869 40.552 143.253 40.104C143.637 39.656 144.101 39.32 144.645 39.096C145.189 38.84 145.797 38.744 146.469 38.808C149.029 39.064 151.749 39.24 154.629 39.336C157.509 39.432 160.421 39.48 163.365 39.48C166.341 39.48 169.285 39.432 172.197 39.336C175.141 39.208 177.941 39.032 180.597 38.808C181.301 38.744 181.925 38.84 182.469 39.096C183.013 39.352 183.477 39.704 183.861 40.152C184.245 40.568 184.533 41.064 184.725 41.64C184.949 42.216 185.061 42.808 185.061 43.416C185.061 44.856 184.661 46.024 183.861 46.92C183.093 47.816 181.989 48.328 180.549 48.456C179.109 48.584 177.621 48.68 176.085 48.744C174.581 48.808 173.045 48.872 171.477 48.936C171.605 49.544 171.669 50.36 171.669 51.384C171.669 52.728 171.541 53.768 171.285 54.504C171.029 55.272 170.581 55.832 169.941 56.184C169.333 56.568 168.501 56.792 167.445 56.856C166.421 56.92 165.125 56.952 163.557 56.952C161.989 56.952 160.677 56.92 159.621 56.856C158.565 56.792 157.717 56.568 157.077 56.184C156.469 55.832 156.037 55.272 155.781 54.504C155.525 53.768 155.397 52.728 155.397 51.384C155.397 50.392 155.461 49.592 155.589 48.984ZM196.782 43.944C195.214 43.56 193.87 43.016 192.75 42.312C191.63 41.608 190.702 40.776 189.966 39.816C189.262 38.824 188.734 37.72 188.382 36.504C188.03 35.288 187.854 33.976 187.854 32.568C187.854 30.328 188.174 28.488 188.814 27.048C189.454 25.608 190.286 24.568 191.31 23.928C189.39 23.352 188.43 22.264 188.43 20.664C188.43 19.832 188.654 19.176 189.102 18.696C189.55 18.216 190.11 17.848 190.782 17.592C191.454 17.336 192.174 17.176 192.942 17.112C193.71 17.016 194.414 16.968 195.054 16.968C194.766 16.712 194.574 16.456 194.478 16.2C194.382 15.912 194.334 15.624 194.334 15.336C194.334 14.312 195.006 13.544 196.35 13.032C197.694 12.488 199.438 12.216 201.582 12.216C203.726 12.216 205.454 12.488 206.766 13.032C208.11 13.544 208.782 14.312 208.782 15.336C208.782 15.624 208.734 15.896 208.638 16.152C208.574 16.408 208.414 16.664 208.158 16.92C208.542 16.952 208.926 16.968 209.31 16.968C209.726 16.968 210.11 16.984 210.462 17.016C212.254 17.08 213.582 17.448 214.446 18.12C215.31 18.792 215.742 19.64 215.742 20.664C215.742 22.264 214.782 23.352 212.862 23.928C213.854 24.568 214.67 25.624 215.31 27.096C215.95 28.536 216.27 30.36 216.27 32.568C216.27 35.32 215.566 37.704 214.158 39.72C212.782 41.736 210.574 43.128 207.534 43.896V45.432C208.494 45.368 209.374 45.32 210.174 45.288C211.006 45.224 211.726 45.16 212.334 45.096C213.582 44.904 214.542 45.256 215.214 46.152C215.886 47.016 216.222 48.152 216.222 49.56C216.222 51.16 215.886 52.44 215.214 53.4C214.542 54.392 213.582 54.968 212.334 55.128C211.566 55.224 210.622 55.304 209.502 55.368C208.382 55.464 207.182 55.528 205.902 55.56C204.622 55.592 203.294 55.608 201.918 55.608C200.542 55.608 199.214 55.592 197.934 55.56C196.654 55.528 195.47 55.48 194.382 55.416C193.294 55.352 192.398 55.272 191.694 55.176C190.446 55.016 189.486 54.44 188.814 53.448C188.142 52.456 187.806 51.16 187.806 49.56C187.806 48.152 188.142 47.032 188.814 46.2C189.486 45.336 190.446 45 191.694 45.192C192.302 45.256 193.038 45.32 193.902 45.384C194.798 45.416 195.758 45.448 196.782 45.48V43.944ZM223.038 56.952C221.086 56.952 219.534 56.408 218.382 55.32C217.262 54.232 216.846 52.6 217.134 50.424C217.678 45.24 217.95 40.088 217.95 34.968C217.95 29.848 217.678 24.808 217.134 19.848C216.846 17.48 217.262 15.72 218.382 14.568C219.534 13.416 221.086 12.84 223.038 12.84C224.766 12.84 226.174 13.32 227.262 14.28C228.382 15.24 229.054 16.712 229.278 18.696C229.79 23.912 230.046 29.32 230.046 34.92C230.046 40.52 229.79 45.944 229.278 51.192C229.054 53.112 228.382 54.552 227.262 55.512C226.174 56.472 224.766 56.952 223.038 56.952ZM201.342 34.968C201.342 35.16 201.422 35.32 201.582 35.448C201.742 35.544 201.902 35.592 202.062 35.592C202.254 35.592 202.43 35.544 202.59 35.448C202.75 35.32 202.83 35.16 202.83 34.968V29.688C202.83 29.496 202.75 29.352 202.59 29.256C202.43 29.128 202.254 29.064 202.062 29.064C201.902 29.064 201.742 29.128 201.582 29.256C201.422 29.352 201.342 29.496 201.342 29.688V34.968Z" fill="url(#paint0_radial_3284_517)"/>
<path d="M65.9013 92C64.3973 92 63.1973 91.456 62.3013 90.368C61.4373 89.28 61.1173 87.648 61.3413 85.472C61.7893 80.288 62.0133 75.136 62.0133 70.016C62.0453 64.896 61.8373 59.856 61.3893 54.896C61.1653 52.528 61.4853 50.768 62.3493 49.616C63.2133 48.464 64.3973 47.888 65.9013 47.888C67.2453 47.888 68.3493 48.368 69.2133 49.328C70.0773 50.288 70.5893 51.76 70.7493 53.744C71.1333 58.96 71.3253 64.368 71.3253 69.968C71.3253 75.568 71.1333 80.992 70.7493 86.24C70.5893 88.16 70.0773 89.6 69.2133 90.56C68.3493 91.52 67.2453 92 65.9013 92ZM48.6213 75.968C48.3973 78.176 48.0293 80.176 47.5173 81.968C47.0373 83.728 46.3813 85.232 45.5493 86.48C44.7173 87.728 43.6933 88.672 42.4773 89.312C41.2613 89.984 39.8213 90.32 38.1573 90.32C36.1093 90.32 34.3973 89.824 33.0213 88.832C31.6453 87.872 30.5253 86.496 29.6613 84.704C28.8293 82.912 28.2213 80.752 27.8373 78.224C27.4853 75.696 27.3093 72.88 27.3093 69.776C27.3093 66.672 27.4693 63.856 27.7893 61.328C28.1413 58.768 28.7333 56.608 29.5653 54.848C30.3973 53.056 31.5013 51.68 32.8773 50.72C34.2853 49.728 36.0453 49.232 38.1573 49.232C39.8853 49.232 41.3573 49.568 42.5733 50.24C43.8213 50.88 44.8613 51.824 45.6933 53.072C46.5253 54.32 47.1813 55.84 47.6613 57.632C48.1413 59.392 48.4773 61.376 48.6693 63.584H51.1653C51.1013 62.176 51.0373 60.784 50.9733 59.408C50.9093 58.032 50.8133 56.656 50.6853 55.28C50.4613 52.912 50.7653 51.184 51.5973 50.096C52.4613 48.976 53.6613 48.416 55.1973 48.416C56.5413 48.416 57.6293 48.88 58.4613 49.808C59.3253 50.736 59.8373 52.16 59.9973 54.08C60.4133 59.232 60.6213 64.56 60.6213 70.064C60.6213 75.568 60.4133 80.896 59.9973 86.048C59.8373 87.968 59.3253 89.392 58.4613 90.32C57.6293 91.248 56.5413 91.712 55.1973 91.712C53.6613 91.712 52.4613 91.168 51.5973 90.08C50.7333 88.992 50.3973 87.392 50.5893 85.28C50.8773 82.144 51.0693 79.04 51.1653 75.968H48.6213ZM38.3013 73.376C38.9413 72.384 39.3733 71.28 39.5973 70.064C39.8213 68.848 39.9493 67.632 39.9813 66.416C39.9813 66.128 39.8853 65.92 39.6933 65.792C39.5333 65.664 39.3412 65.6 39.1172 65.6C38.9253 65.6 38.7333 65.648 38.5413 65.744C38.3813 65.84 38.3013 65.984 38.3013 66.176C38.2373 67.328 38.0773 68.448 37.8213 69.536C37.5653 70.592 37.1653 71.696 36.6213 72.848C36.5253 73.008 36.5253 73.168 36.6213 73.328C36.7493 73.456 36.9093 73.568 37.1013 73.664C37.2933 73.728 37.5013 73.744 37.7253 73.712C37.9493 73.68 38.1413 73.568 38.3013 73.376ZM82.8546 65.648C80.5826 65.616 78.7106 65.072 77.2386 64.016C75.7986 62.928 75.0306 61.2 74.9346 58.832C74.8706 57.648 75.0306 56.56 75.4146 55.568C75.8306 54.576 76.4226 53.696 77.1906 52.928C77.9906 52.16 78.9346 51.504 80.0226 50.96C81.1106 50.416 82.3106 49.984 83.6226 49.664C85.3506 49.248 87.1426 48.928 88.9986 48.704C90.8866 48.48 92.7906 48.368 94.7106 48.368C96.6306 48.336 98.5186 48.432 100.375 48.656C102.231 48.848 103.991 49.152 105.655 49.568C107.959 50.176 109.863 51.104 111.367 52.352C112.871 53.568 113.847 54.976 114.295 56.576C114.583 57.632 114.791 58.784 114.919 60.032C115.079 61.28 115.127 62.544 115.063 63.824C115.031 65.104 114.887 66.368 114.631 67.616C114.375 68.864 114.007 70.016 113.527 71.072C112.695 72.928 111.415 74.368 109.687 75.392C107.959 76.416 105.847 76.976 103.351 77.072C102.007 77.136 100.791 77.008 99.7026 76.688C98.6146 76.368 97.6546 75.904 96.8226 75.296C96.0226 74.656 95.3666 73.904 94.8546 73.04C94.3426 72.176 94.0226 71.216 93.8946 70.16C93.5746 67.76 93.6706 65.6 94.1826 63.68C94.7266 61.76 95.5266 59.968 96.5826 58.304C96.7746 57.984 96.7106 57.744 96.3906 57.584C96.1026 57.424 95.8626 57.488 95.6706 57.776C93.8146 60.368 91.8306 62.352 89.7186 63.728C87.6386 65.072 85.3506 65.712 82.8546 65.648ZM79.4466 90.704C77.6226 90.512 76.1986 89.84 75.1746 88.688C74.1506 87.568 73.6386 85.872 73.6386 83.6C73.6386 82.704 73.7666 81.872 74.0226 81.104C74.2786 80.304 74.6626 79.632 75.1746 79.088C75.6866 78.512 76.2946 78.096 76.9986 77.84C77.7026 77.552 78.5186 77.456 79.4466 77.552C84.7906 78.096 90.0066 78.368 95.0946 78.368C100.215 78.368 105.463 78.096 110.839 77.552C111.767 77.456 112.583 77.552 113.287 77.84C114.023 78.096 114.631 78.512 115.111 79.088C115.623 79.632 116.007 80.304 116.263 81.104C116.519 81.872 116.647 82.704 116.647 83.6C116.647 85.872 116.135 87.568 115.111 88.688C114.119 89.84 112.679 90.512 110.791 90.704C105.415 91.248 100.183 91.52 95.0946 91.52C90.0386 91.52 84.8226 91.248 79.4466 90.704ZM132.832 79.04C132.704 78.784 132.64 78.448 132.64 78.032C132.64 77.616 132.704 77.28 132.832 77.024C129.696 76.768 127.232 76.224 125.44 75.392C123.648 74.56 122.48 73.472 121.936 72.128C121.328 70.784 121.04 69.424 121.072 68.048C121.104 66.64 121.392 65.36 121.936 64.208C122.224 63.536 122.56 62.912 122.944 62.336C123.36 61.76 123.92 61.264 124.624 60.848C125.328 60.432 126.192 60.112 127.216 59.888C128.272 59.632 129.6 59.504 131.2 59.504C133.504 59.504 135.76 59.472 137.968 59.408C140.176 59.344 142.432 59.184 144.736 58.928C144.992 58.928 145.168 58.864 145.264 58.736C145.392 58.576 145.44 58.432 145.408 58.304C145.408 58.144 145.328 58.016 145.168 57.92C145.04 57.792 144.864 57.728 144.64 57.728C140.352 58.112 136.176 58.304 132.112 58.304C130.16 58.304 128.544 58.224 127.264 58.064C126.016 57.904 125.008 57.664 124.24 57.344C123.504 57.024 122.976 56.624 122.656 56.144C122.368 55.632 122.224 55.056 122.224 54.416C122.224 53.168 123.072 52.128 124.768 51.296C126.464 50.432 129.072 49.856 132.592 49.568C135.184 49.376 137.696 49.264 140.128 49.232C142.56 49.168 144.96 49.216 147.328 49.376C148.768 49.472 150.128 49.616 151.408 49.808C152.72 50 153.904 50.272 154.96 50.624C156.016 50.944 156.912 51.36 157.648 51.872C158.384 52.384 158.912 53.024 159.232 53.792C159.776 55.104 160.048 56.432 160.048 57.776C160.048 59.12 159.776 60.352 159.232 61.472C158.88 62.208 158.128 62.72 156.976 63.008C155.856 63.264 154.576 63.392 153.136 63.392C148.976 63.328 145.344 63.44 142.24 63.728C139.136 63.984 136.384 64.384 133.984 64.928C133.696 64.992 133.488 65.104 133.36 65.264C133.232 65.424 133.184 65.584 133.216 65.744C133.248 65.904 133.344 66.032 133.504 66.128C133.664 66.224 133.888 66.24 134.176 66.176C136.256 65.792 138.592 65.44 141.184 65.12C143.808 64.768 146.384 64.592 148.912 64.592C152.816 64.592 155.792 64.992 157.84 65.792C159.92 66.56 161.008 67.968 161.104 70.016C161.168 71.104 160.928 72.032 160.384 72.8C159.872 73.568 159.152 74.224 158.224 74.768C157.296 75.28 156.176 75.712 154.864 76.064C153.584 76.384 152.208 76.64 150.736 76.832C150.384 76.896 150.048 76.944 149.728 76.976C149.408 77.008 149.072 77.04 148.72 77.072C148.784 77.232 148.832 77.392 148.864 77.552C148.896 77.68 148.912 77.84 148.912 78.032C148.912 78.224 148.896 78.4 148.864 78.56C148.832 78.72 148.784 78.88 148.72 79.04C151.312 78.88 153.888 78.688 156.448 78.464C157.376 78.368 158.192 78.464 158.896 78.752C159.632 79.008 160.24 79.408 160.72 79.952C161.232 80.464 161.616 81.088 161.872 81.824C162.128 82.56 162.256 83.344 162.256 84.176C162.256 86.256 161.744 87.824 160.72 88.88C159.728 89.968 158.288 90.608 156.4 90.8C151.056 91.344 145.824 91.616 140.704 91.616C135.616 91.616 130.4 91.344 125.056 90.8C123.232 90.608 121.808 89.968 120.784 88.88C119.76 87.824 119.248 86.256 119.248 84.176C119.248 83.344 119.376 82.56 119.632 81.824C119.888 81.088 120.272 80.464 120.784 79.952C121.296 79.408 121.904 79.008 122.608 78.752C123.312 78.464 124.128 78.368 125.056 78.464C127.68 78.72 130.272 78.912 132.832 79.04ZM174.073 65.648C171.801 65.616 169.929 65.072 168.457 64.016C167.017 62.928 166.249 61.2 166.153 58.832C166.089 57.648 166.249 56.56 166.633 55.568C167.049 54.576 167.641 53.696 168.409 52.928C169.209 52.16 170.153 51.504 171.241 50.96C172.329 50.416 173.529 49.984 174.841 49.664C176.569 49.248 178.361 48.928 180.217 48.704C182.105 48.48 184.009 48.368 185.929 48.368C187.849 48.336 189.737 48.432 191.593 48.656C193.449 48.848 195.209 49.152 196.873 49.568C199.177 50.176 201.081 51.104 202.585 52.352C204.089 53.568 205.065 54.976 205.513 56.576C205.801 57.632 206.009 58.784 206.137 60.032C206.297 61.28 206.345 62.544 206.281 63.824C206.249 65.104 206.105 66.368 205.849 67.616C205.593 68.864 205.225 70.016 204.745 71.072C203.913 72.928 202.633 74.368 200.905 75.392C199.177 76.416 197.065 76.976 194.569 77.072C193.225 77.136 192.009 77.008 190.921 76.688C189.833 76.368 188.873 75.904 188.041 75.296C187.241 74.656 186.585 73.904 186.073 73.04C185.561 72.176 185.241 71.216 185.113 70.16C184.793 67.76 184.889 65.6 185.401 63.68C185.945 61.76 186.745 59.968 187.801 58.304C187.993 57.984 187.929 57.744 187.609 57.584C187.321 57.424 187.081 57.488 186.889 57.776C185.033 60.368 183.049 62.352 180.937 63.728C178.857 65.072 176.569 65.712 174.073 65.648ZM170.665 90.704C168.841 90.512 167.417 89.84 166.393 88.688C165.369 87.568 164.857 85.872 164.857 83.6C164.857 82.704 164.985 81.872 165.241 81.104C165.497 80.304 165.881 79.632 166.393 79.088C166.905 78.512 167.513 78.096 168.217 77.84C168.921 77.552 169.737 77.456 170.665 77.552C176.009 78.096 181.225 78.368 186.313 78.368C191.433 78.368 196.681 78.096 202.057 77.552C202.985 77.456 203.801 77.552 204.505 77.84C205.241 78.096 205.849 78.512 206.329 79.088C206.841 79.632 207.225 80.304 207.481 81.104C207.737 81.872 207.865 82.704 207.865 83.6C207.865 85.872 207.353 87.568 206.329 88.688C205.337 89.84 203.897 90.512 202.009 90.704C196.633 91.248 191.401 91.52 186.313 91.52C181.257 91.52 176.041 91.248 170.665 90.704Z" fill="#F9F9F9"/>
<defs>
<radialGradient id="paint0_radial_3284_517" cx="0" cy="0" r="1" gradientUnits="userSpaceOnUse" gradientTransform="translate(118 34.5) rotate(90) scale(34.5 147.036)">
<stop stop-color="#258D3F"/>
<stop offset="1" stop-color="#A2E5B3"/>
</radialGradient>
</defs>
</svg>
